# xmcd
#
# Track frame offsets: 
#        150
#        23331
#        46933
#        60266
#
# Disc length: 1118 seconds
#
# Revision: 0
# Processed by: cddbd v1.5.2PL0 Copyright (c) Steve Scherf et al.
# Submitted via: ExactAudioCopy v0.95b3
#
DISCID=1f045c04
DTITLE=Aaron Black - Aaron Black Band
DYEAR=1900
DGENRE=Rock/Blues
TTITLE0=Ridin' in the moonlight
TTITLE1=Walking out on you
TTITLE2=Honey Bee
TTITLE3=One's too many
EXTD=
EXTT0=
EXTT1=
EXTT2=
EXTT3=
PLAYORDER=
